<?xml version="1.0" encoding="UTF-8" standalone="no"?>
<!DOCTYPE svg PUBLIC "-//W3C//DTD SVG 1.1//EN"
 "http://www.w3.org/Graphics/SVG/1.1/DTD/svg11.dtd">
<!-- Generated by graphviz version 2.38.0 (20140413.2041)
 -->
<!-- Title: G Pages: 1 -->
<svg width="791pt" height="1434pt"
 viewBox="0.00 0.00 791.23 1434.00" xmlns="http://www.w3.org/2000/svg" xmlns:xlink="http://www.w3.org/1999/xlink">
<g id="graph0" class="graph" transform="scale(1 1) rotate(0) translate(4 1430)">
<title>G</title>
<polygon fill="white" stroke="none" points="-4,4 -4,-1430 787.228,-1430 787.228,4 -4,4"/>
<g id="clust1" class="cluster"><title>cluster_Global</title>
<path fill="none" stroke="gray" d="M568.605,-8C568.605,-8 763.228,-8 763.228,-8 769.228,-8 775.228,-14 775.228,-20 775.228,-20 775.228,-1406 775.228,-1406 775.228,-1412 769.228,-1418 763.228,-1418 763.228,-1418 568.605,-1418 568.605,-1418 562.605,-1418 556.605,-1412 556.605,-1406 556.605,-1406 556.605,-20 556.605,-20 556.605,-14 562.605,-8 568.605,-8"/>
<text text-anchor="middle" x="665.916" y="-1405.2" font-family="Times,serif" font-size="11.00" fill="gray">Global</text>
</g>
<g id="clust2" class="cluster"><title>cluster_\KMJ</title>
<path fill="none" stroke="gray" d="M576.605,-16C576.605,-16 755.228,-16 755.228,-16 761.228,-16 767.228,-22 767.228,-28 767.228,-28 767.228,-1379 767.228,-1379 767.228,-1385 761.228,-1391 755.228,-1391 755.228,-1391 576.605,-1391 576.605,-1391 570.605,-1391 564.605,-1385 564.605,-1379 564.605,-1379 564.605,-28 564.605,-28 564.605,-22 570.605,-16 576.605,-16"/>
<text text-anchor="middle" x="665.916" y="-1378.2" font-family="Times,serif" font-size="11.00" fill="gray">KMJ</text>
</g>
<g id="clust3" class="cluster"><title>cluster_\KMJ\ToolkitBundle</title>
<path fill="none" stroke="gray" d="M584.605,-24C584.605,-24 747.228,-24 747.228,-24 753.228,-24 759.228,-30 759.228,-36 759.228,-36 759.228,-1352 759.228,-1352 759.228,-1358 753.228,-1364 747.228,-1364 747.228,-1364 584.605,-1364 584.605,-1364 578.605,-1364 572.605,-1358 572.605,-1352 572.605,-1352 572.605,-36 572.605,-36 572.605,-30 578.605,-24 584.605,-24"/>
<text text-anchor="middle" x="665.916" y="-1351.2" font-family="Times,serif" font-size="11.00" fill="gray">ToolkitBundle</text>
</g>
<g id="clust7" class="cluster"><title>cluster_\KMJ\ToolkitBundle\DataFixtures</title>
<path fill="none" stroke="gray" d="M603.009,-955C603.009,-955 728.823,-955 728.823,-955 734.823,-955 740.823,-961 740.823,-967 740.823,-967 740.823,-1325 740.823,-1325 740.823,-1331 734.823,-1337 728.823,-1337 728.823,-1337 603.009,-1337 603.009,-1337 597.009,-1337 591.009,-1331 591.009,-1325 591.009,-1325 591.009,-967 591.009,-967 591.009,-961 597.009,-955 603.009,-955"/>
<text text-anchor="middle" x="665.916" y="-1324.2" font-family="Times,serif" font-size="11.00" fill="gray">DataFixtures</text>
</g>
<g id="clust8" class="cluster"><title>cluster_\KMJ\ToolkitBundle\DataFixtures\ORM</title>
<path fill="none" stroke="gray" d="M612.408,-1077C612.408,-1077 719.424,-1077 719.424,-1077 725.424,-1077 731.424,-1083 731.424,-1089 731.424,-1089 731.424,-1298 731.424,-1298 731.424,-1304 725.424,-1310 719.424,-1310 719.424,-1310 612.408,-1310 612.408,-1310 606.408,-1310 600.408,-1304 600.408,-1298 600.408,-1298 600.408,-1089 600.408,-1089 600.408,-1083 606.408,-1077 612.408,-1077"/>
<text text-anchor="middle" x="665.916" y="-1297.2" font-family="Times,serif" font-size="11.00" fill="gray">ORM</text>
</g>
<g id="clust9" class="cluster"><title>cluster_\KMJ\ToolkitBundle\DataFixtures\Alice</title>
<path fill="none" stroke="gray" d="M611.009,-963C611.009,-963 720.823,-963 720.823,-963 726.823,-963 732.823,-969 732.823,-975 732.823,-975 732.823,-1057 732.823,-1057 732.823,-1063 726.823,-1069 720.823,-1069 720.823,-1069 611.009,-1069 611.009,-1069 605.009,-1069 599.009,-1063 599.009,-1057 599.009,-1057 599.009,-975 599.009,-975 599.009,-969 605.009,-963 611.009,-963"/>
<text text-anchor="middle" x="665.916" y="-1056.2" font-family="Times,serif" font-size="11.00" fill="gray">Alice</text>
</g>
<g id="clust10" class="cluster"><title>cluster_\KMJ\ToolkitBundle\DataFixtures\Alice\Processor</title>
<path fill="none" stroke="gray" d="M619.009,-971C619.009,-971 712.823,-971 712.823,-971 718.823,-971 724.823,-977 724.823,-983 724.823,-983 724.823,-1030 724.823,-1030 724.823,-1036 718.823,-1042 712.823,-1042 712.823,-1042 619.009,-1042 619.009,-1042 613.009,-1042 607.009,-1036 607.009,-1030 607.009,-1030 607.009,-983 607.009,-983 607.009,-977 613.009,-971 619.009,-971"/>
<text text-anchor="middle" x="665.916" y="-1029.2" font-family="Times,serif" font-size="11.00" fill="gray">Processor</text>
</g>
<g id="clust14" class="cluster"><title>cluster_\KMJ\ToolkitBundle\Service</title>
<path fill="none" stroke="gray" d="M615.709,-876C615.709,-876 716.124,-876 716.124,-876 722.124,-876 728.124,-882 728.124,-888 728.124,-888 728.124,-935 728.124,-935 728.124,-941 722.124,-947 716.124,-947 716.124,-947 615.709,-947 615.709,-947 609.709,-947 603.709,-941 603.709,-935 603.709,-935 603.709,-888 603.709,-888 603.709,-882 609.709,-876 615.709,-876"/>
<text text-anchor="middle" x="665.916" y="-934.2" font-family="Times,serif" font-size="11.00" fill="gray">Service</text>
</g>
<g id="clust4" class="cluster"><title>cluster_\KMJ\ToolkitBundle\Entity</title>
<path fill="none" stroke="gray" d="M628.911,-581C628.911,-581 702.922,-581 702.922,-581 708.922,-581 714.922,-587 714.922,-593 714.922,-593 714.922,-856 714.922,-856 714.922,-862 708.922,-868 702.922,-868 702.922,-868 628.911,-868 628.911,-868 622.911,-868 616.911,-862 616.911,-856 616.911,-856 616.911,-593 616.911,-593 616.911,-587 622.911,-581 628.911,-581"/>
<text text-anchor="middle" x="665.916" y="-855.2" font-family="Times,serif" font-size="11.00" fill="gray">Entity</text>
</g>
<g id="clust6" class="cluster"><title>cluster_\KMJ\ToolkitBundle\Form</title>
<path fill="none" stroke="gray" d="M625.61,-369C625.61,-369 706.222,-369 706.222,-369 712.222,-369 718.222,-375 718.222,-381 718.222,-381 718.222,-482 718.222,-482 718.222,-488 712.222,-494 706.222,-494 706.222,-494 625.61,-494 625.61,-494 619.61,-494 613.61,-488 613.61,-482 613.61,-482 613.61,-381 613.61,-381 613.61,-375 619.61,-369 625.61,-369"/>
<text text-anchor="middle" x="665.916" y="-481.2" font-family="Times,serif" font-size="11.00" fill="gray">Form</text>
</g>
<g id="clust13" class="cluster"><title>cluster_\KMJ\ToolkitBundle\DependencyInjection</title>
<path fill="none" stroke="gray" d="M599.206,-78C599.206,-78 732.626,-78 732.626,-78 738.626,-78 744.626,-84 744.626,-90 744.626,-90 744.626,-191 744.626,-191 744.626,-197 738.626,-203 732.626,-203 732.626,-203 599.206,-203 599.206,-203 593.206,-203 587.206,-197 587.206,-191 587.206,-191 587.206,-90 587.206,-90 587.206,-84 593.206,-78 599.206,-78"/>
<text text-anchor="middle" x="665.916" y="-190.2" font-family="Times,serif" font-size="11.00" fill="gray">DependencyInjection</text>
</g>
<g id="clust5" class="cluster"><title>cluster_\KMJ\ToolkitBundle\Hierarchy</title>
<path fill="none" stroke="gray" d="M619.009,-502C619.009,-502 712.823,-502 712.823,-502 718.823,-502 724.823,-508 724.823,-514 724.823,-514 724.823,-561 724.823,-561 724.823,-567 718.823,-573 712.823,-573 712.823,-573 619.009,-573 619.009,-573 613.009,-573 607.009,-567 607.009,-561 607.009,-561 607.009,-514 607.009,-514 607.009,-508 613.009,-502 619.009,-502"/>
<text text-anchor="middle" x="665.916" y="-560.2" font-family="Times,serif" font-size="11.00" fill="gray">Hierarchy</text>
</g>
<g id="clust11" class="cluster"><title>cluster_\KMJ\ToolkitBundle\TwigExtension</title>
<path fill="none" stroke="gray" d="M605.807,-290C605.807,-290 726.025,-290 726.025,-290 732.025,-290 738.025,-296 738.025,-302 738.025,-302 738.025,-349 738.025,-349 738.025,-355 732.025,-361 726.025,-361 726.025,-361 605.807,-361 605.807,-361 599.807,-361 593.807,-355 593.807,-349 593.807,-349 593.807,-302 593.807,-302 593.807,-296 599.807,-290 605.807,-290"/>
<text text-anchor="middle" x="665.916" y="-348.2" font-family="Times,serif" font-size="11.00" fill="gray">TwigExtension</text>
</g>
<g id="clust12" class="cluster"><title>cluster_\KMJ\ToolkitBundle\Listener</title>
<path fill="none" stroke="gray" d="M592.605,-211C592.605,-211 739.228,-211 739.228,-211 745.228,-211 751.228,-217 751.228,-223 751.228,-223 751.228,-270 751.228,-270 751.228,-276 745.228,-282 739.228,-282 739.228,-282 592.605,-282 592.605,-282 586.605,-282 580.605,-276 580.605,-270 580.605,-270 580.605,-223 580.605,-223 580.605,-217 586.605,-211 592.605,-211"/>
<text text-anchor="middle" x="665.916" y="-269.2" font-family="Times,serif" font-size="11.00" fill="gray">Listener</text>
</g>
<!-- \\KMJ\\ToolkitBundle\\Entity\\User -->
<g id="node1" class="node"><title>\\KMJ\\ToolkitBundle\\Entity\\User</title>
<polygon fill="none" stroke="black" points="706.927,-841 624.906,-841 624.906,-805 706.927,-805 706.927,-841"/>
<text text-anchor="start" x="632.911" y="-825.2" font-family="Courier,monospace" font-size="11.00">«abstract»</text>
<text text-anchor="start" x="652.714" y="-814.2" font-family="Courier,monospace" font-size="11.00">User</text>
</g>
<!-- \\FOS\\UserBundle\\Model\\User -->
<g id="node21" class="node"><title>\\FOS\\UserBundle\\Model\\User</title>
<ellipse fill="none" stroke="black" cx="258.303" cy="-823" rx="118.378" ry="18"/>
<text text-anchor="middle" x="258.303" y="-818.8" font-family="Times,serif" font-size="14.00" fill="gray">\FOS\UserBundle\Model\User</text>
</g>
<!-- \\KMJ\\ToolkitBundle\\Entity\\User&#45;&gt;\\FOS\\UserBundle\\Model\\User -->
<g id="edge2" class="edge"><title>\\KMJ\\ToolkitBundle\\Entity\\User&#45;&gt;\\FOS\\UserBundle\\Model\\User</title>
<path fill="none" stroke="black" d="M624.542,-823C569.679,-823 469.05,-823 387.29,-823"/>
<polygon fill="none" stroke="black" points="386.908,-819.5 376.908,-823 386.908,-826.5 386.908,-819.5"/>
</g>
<!-- \\KMJ\\ToolkitBundle\\Entity\\Country -->
<g id="node2" class="node"><title>\\KMJ\\ToolkitBundle\\Entity\\Country</title>
<polygon fill="none" stroke="black" points="697.124,-787 634.708,-787 634.708,-751 697.124,-751 697.124,-787"/>
<text text-anchor="middle" x="665.916" y="-765.7" font-family="Courier,monospace" font-size="11.00">Country</text>
</g>
<!-- \\KMJ\\ToolkitBundle\\Entity\\Role -->
<g id="node3" class="node"><title>\\KMJ\\ToolkitBundle\\Entity\\Role</title>
<polygon fill="none" stroke="black" points="692.916,-733 638.916,-733 638.916,-697 692.916,-697 692.916,-733"/>
<text text-anchor="middle" x="665.916" y="-711.7" font-family="Courier,monospace" font-size="11.00">Role</text>
</g>
<!-- \\Symfony\\Component\\Security\\Core\\Role\\RoleInterface -->
<g id="node31" class="node"><title>\\Symfony\\Component\\Security\\Core\\Role\\RoleInterface</title>
<ellipse fill="none" stroke="black" cx="258.303" cy="-715" rx="210.052" ry="18"/>
<text text-anchor="middle" x="258.303" y="-710.8" font-family="Times,serif" font-size="14.00" fill="gray">\Symfony\Component\Security\Core\Role\RoleInterface</text>
</g>
<!-- \\KMJ\\ToolkitBundle\\Entity\\Role&#45;&gt;\\Symfony\\Component\\Security\\Core\\Role\\RoleInterface -->
<g id="edge17" class="edge"><title>\\KMJ\\ToolkitBundle\\Entity\\Role&#45;&gt;\\Symfony\\Component\\Security\\Core\\Role\\RoleInterface</title>
<path fill="none" stroke="black" stroke-dasharray="1,5" d="M638.615,-715C604.872,-715 543.003,-715 478.883,-715"/>
<polygon fill="none" stroke="black" points="478.576,-711.5 468.576,-715 478.576,-718.5 478.576,-711.5"/>
</g>
<!-- \\KMJ\\ToolkitBundle\\Entity\\Address -->
<g id="node4" class="node"><title>\\KMJ\\ToolkitBundle\\Entity\\Address</title>
<polygon fill="none" stroke="black" points="697.124,-679 634.708,-679 634.708,-643 697.124,-643 697.124,-679"/>
<text text-anchor="middle" x="665.916" y="-657.7" font-family="Courier,monospace" font-size="11.00">Address</text>
</g>
<!-- \\KMJ\\ToolkitBundle\\Entity\\State -->
<g id="node5" class="node"><title>\\KMJ\\ToolkitBundle\\Entity\\State</title>
<polygon fill="none" stroke="black" points="692.916,-625 638.916,-625 638.916,-589 692.916,-589 692.916,-625"/>
<text text-anchor="middle" x="665.916" y="-603.7" font-family="Courier,monospace" font-size="11.00">State</text>
</g>
<!-- \\KMJ\\ToolkitBundle\\Hierarchy\\RoleHierarchy -->
<g id="node6" class="node"><title>\\KMJ\\ToolkitBundle\\Hierarchy\\RoleHierarchy</title>
<polygon fill="none" stroke="black" points="716.73,-546 615.102,-546 615.102,-510 716.73,-510 716.73,-546"/>
<text text-anchor="middle" x="665.916" y="-524.7" font-family="Courier,monospace" font-size="11.00">RoleHierarchy</text>
</g>
<!-- \\Symfony\\Component\\Security\\Core\\Role\\RoleHierarchy -->
<g id="node22" class="node"><title>\\Symfony\\Component\\Security\\Core\\Role\\RoleHierarchy</title>
<ellipse fill="none" stroke="black" cx="258.303" cy="-528" rx="213.929" ry="18"/>
<text text-anchor="middle" x="258.303" y="-523.8" font-family="Times,serif" font-size="14.00" fill="gray">\Symfony\Component\Security\Core\Role\RoleHierarchy</text>
</g>
<!-- \\KMJ\\ToolkitBundle\\Hierarchy\\RoleHierarchy&#45;&gt;\\Symfony\\Component\\Security\\Core\\Role\\RoleHierarchy -->
<g id="edge3" class="edge"><title>\\KMJ\\ToolkitBundle\\Hierarchy\\RoleHierarchy&#45;&gt;\\Symfony\\Component\\Security\\Core\\Role\\RoleHierarchy</title>
<path fill="none" stroke="black" d="M614.773,-528C580.567,-528 532.608,-528 482.965,-528"/>
<polygon fill="none" stroke="black" points="482.685,-524.5 472.685,-528 482.685,-531.5 482.685,-524.5"/>
</g>
<!-- \\KMJ\\ToolkitBundle\\Form\\AddressType -->
<g id="node7" class="node"><title>\\KMJ\\ToolkitBundle\\Form\\AddressType</title>
<polygon fill="none" stroke="black" points="710.029,-467 621.804,-467 621.804,-431 710.029,-431 710.029,-467"/>
<text text-anchor="middle" x="665.916" y="-445.7" font-family="Courier,monospace" font-size="11.00">AddressType</text>
</g>
<!-- \\Symfony\\Component\\Form\\AbstractType -->
<g id="node23" class="node"><title>\\Symfony\\Component\\Form\\AbstractType</title>
<ellipse fill="none" stroke="black" cx="258.303" cy="-449" rx="160.115" ry="18"/>
<text text-anchor="middle" x="258.303" y="-444.8" font-family="Times,serif" font-size="14.00" fill="gray">\Symfony\Component\Form\AbstractType</text>
</g>
<!-- \\KMJ\\ToolkitBundle\\Form\\AddressType&#45;&gt;\\Symfony\\Component\\Form\\AbstractType -->
<g id="edge4" class="edge"><title>\\KMJ\\ToolkitBundle\\Form\\AddressType&#45;&gt;\\Symfony\\Component\\Form\\AbstractType</title>
<path fill="none" stroke="black" d="M621.509,-449C575.343,-449 499.41,-449 428.961,-449"/>
<polygon fill="none" stroke="black" points="428.611,-445.5 418.611,-449 428.611,-452.5 428.611,-445.5"/>
</g>
<!-- \\KMJ\\ToolkitBundle\\Form\\UserType -->
<g id="node8" class="node"><title>\\KMJ\\ToolkitBundle\\Form\\UserType</title>
<polygon fill="none" stroke="black" points="700.225,-413 631.607,-413 631.607,-377 700.225,-377 700.225,-413"/>
<text text-anchor="middle" x="665.916" y="-391.7" font-family="Courier,monospace" font-size="11.00">UserType</text>
</g>
<!-- \\FOS\\UserBundle\\Form\\Type\\RegistrationFormType -->
<g id="node33" class="node"><title>\\FOS\\UserBundle\\Form\\Type\\RegistrationFormType</title>
<ellipse fill="none" stroke="black" cx="258.303" cy="-395" rx="197.542" ry="18"/>
<text text-anchor="middle" x="258.303" y="-390.8" font-family="Times,serif" font-size="14.00" fill="gray">\FOS\UserBundle\Form\Type\RegistrationFormType</text>
</g>
<!-- \\KMJ\\ToolkitBundle\\Form\\UserType&#45;&gt;\\FOS\\UserBundle\\Form\\Type\\RegistrationFormType -->
<g id="edge21" class="edge"><title>\\KMJ\\ToolkitBundle\\Form\\UserType&#45;&gt;\\FOS\\UserBundle\\Form\\Type\\RegistrationFormType</title>
<path fill="none" stroke="black" d="M631.378,-395C594.084,-395 530.616,-395 466.556,-395"/>
<polygon fill="none" stroke="black" points="466.274,-391.5 456.274,-395 466.274,-398.5 466.274,-391.5"/>
</g>
<!-- \\KMJ\\ToolkitBundle\\DataFixtures\\ORM\\UserFixtures -->
<g id="node9" class="node"><title>\\KMJ\\ToolkitBundle\\DataFixtures\\ORM\\UserFixtures</title>
<polygon fill="none" stroke="black" points="713.629,-1175 618.203,-1175 618.203,-1139 713.629,-1139 713.629,-1175"/>
<text text-anchor="middle" x="665.916" y="-1153.7" font-family="Courier,monospace" font-size="11.00">UserFixtures</text>
</g>
<!-- \\Doctrine\\Common\\DataFixtures\\AbstractFixture -->
<g id="node24" class="node"><title>\\Doctrine\\Common\\DataFixtures\\AbstractFixture</title>
<ellipse fill="none" stroke="black" cx="258.303" cy="-1211" rx="184.962" ry="18"/>
<text text-anchor="middle" x="258.303" y="-1206.8" font-family="Times,serif" font-size="14.00" fill="gray">\Doctrine\Common\DataFixtures\AbstractFixture</text>
</g>
<!-- \\KMJ\\ToolkitBundle\\DataFixtures\\ORM\\UserFixtures&#45;&gt;\\Doctrine\\Common\\DataFixtures\\AbstractFixture -->
<g id="edge5" class="edge"><title>\\KMJ\\ToolkitBundle\\DataFixtures\\ORM\\UserFixtures&#45;&gt;\\Doctrine\\Common\\DataFixtures\\AbstractFixture</title>
<path fill="none" stroke="black" d="M618.306,-1166.42C589.165,-1172.07 550.802,-1179.1 516.605,-1184 480.435,-1189.18 441.269,-1193.8 404.665,-1197.68"/>
<polygon fill="none" stroke="black" points="403.993,-1194.23 394.413,-1198.76 404.724,-1201.2 403.993,-1194.23"/>
</g>
<!-- \\Doctrine\\Common\\DataFixtures\\OrderedFixtureInterface -->
<g id="node25" class="node"><title>\\Doctrine\\Common\\DataFixtures\\OrderedFixtureInterface</title>
<ellipse fill="none" stroke="black" cx="258.303" cy="-1157" rx="215.313" ry="18"/>
<text text-anchor="middle" x="258.303" y="-1152.8" font-family="Times,serif" font-size="14.00" fill="gray">\Doctrine\Common\DataFixtures\OrderedFixtureInterface</text>
</g>
<!-- \\KMJ\\ToolkitBundle\\DataFixtures\\ORM\\UserFixtures&#45;&gt;\\Doctrine\\Common\\DataFixtures\\OrderedFixtureInterface -->
<g id="edge6" class="edge"><title>\\KMJ\\ToolkitBundle\\DataFixtures\\ORM\\UserFixtures&#45;&gt;\\Doctrine\\Common\\DataFixtures\\OrderedFixtureInterface</title>
<path fill="none" stroke="black" stroke-dasharray="1,5" d="M617.991,-1157C583.876,-1157 534.942,-1157 484.143,-1157"/>
<polygon fill="none" stroke="black" points="483.962,-1153.5 473.962,-1157 483.962,-1160.5 483.962,-1153.5"/>
</g>
<!-- \\Symfony\\Component\\DependencyInjection\\ContainerAwareInterface -->
<g id="node26" class="node"><title>\\Symfony\\Component\\DependencyInjection\\ContainerAwareInterface</title>
<ellipse fill="none" stroke="black" cx="258.303" cy="-1103" rx="258.105" ry="18"/>
<text text-anchor="middle" x="258.303" y="-1098.8" font-family="Times,serif" font-size="14.00" fill="gray">\Symfony\Component\DependencyInjection\ContainerAwareInterface</text>
</g>
<!-- \\KMJ\\ToolkitBundle\\DataFixtures\\ORM\\UserFixtures&#45;&gt;\\Symfony\\Component\\DependencyInjection\\ContainerAwareInterface -->
<g id="edge7" class="edge"><title>\\KMJ\\ToolkitBundle\\DataFixtures\\ORM\\UserFixtures&#45;&gt;\\Symfony\\Component\\DependencyInjection\\ContainerAwareInterface</title>
<path fill="none" stroke="black" stroke-dasharray="1,5" d="M618.306,-1147.58C589.165,-1141.93 550.802,-1134.9 516.605,-1130 486.816,-1125.73 454.996,-1121.85 424.248,-1118.44"/>
<polygon fill="none" stroke="black" points="424.628,-1114.96 414.306,-1117.35 423.865,-1121.92 424.628,-1114.96"/>
</g>
<!-- \\KMJ\\ToolkitBundle\\DataFixtures\\ORM\\CountryFixtures -->
<g id="node10" class="node"><title>\\KMJ\\ToolkitBundle\\DataFixtures\\ORM\\CountryFixtures</title>
<polygon fill="none" stroke="black" points="723.432,-1283 608.4,-1283 608.4,-1247 723.432,-1247 723.432,-1283"/>
<text text-anchor="middle" x="665.916" y="-1261.7" font-family="Courier,monospace" font-size="11.00">CountryFixtures</text>
</g>
<!-- \\KMJ\\ToolkitBundle\\DataFixtures\\ORM\\CountryFixtures&#45;&gt;\\Doctrine\\Common\\DataFixtures\\AbstractFixture -->
<g id="edge11" class="edge"><title>\\KMJ\\ToolkitBundle\\DataFixtures\\ORM\\CountryFixtures&#45;&gt;\\Doctrine\\Common\\DataFixtures\\AbstractFixture</title>
<path fill="none" stroke="black" d="M608.09,-1257.43C548.831,-1249.55 454.197,-1236.95 378.446,-1226.86"/>
<polygon fill="none" stroke="black" points="378.737,-1223.37 368.362,-1225.52 377.813,-1230.31 378.737,-1223.37"/>
</g>
<!-- \\KMJ\\ToolkitBundle\\DataFixtures\\ORM\\CountryFixtures&#45;&gt;\\Doctrine\\Common\\DataFixtures\\OrderedFixtureInterface -->
<g id="edge12" class="edge"><title>\\KMJ\\ToolkitBundle\\DataFixtures\\ORM\\CountryFixtures&#45;&gt;\\Doctrine\\Common\\DataFixtures\\OrderedFixtureInterface</title>
<path fill="none" stroke="black" stroke-dasharray="1,5" d="M608.17,-1258.46C590.58,-1254.51 571.835,-1248.17 556.605,-1238 531.767,-1221.41 542.541,-1198.81 516.605,-1184 503.167,-1176.33 488.686,-1170.23 473.685,-1165.42"/>
<polygon fill="none" stroke="black" points="474.343,-1161.96 463.759,-1162.45 472.333,-1168.67 474.343,-1161.96"/>
</g>
<!-- \\KMJ\\ToolkitBundle\\DataFixtures\\ORM\\StateFixtures -->
<g id="node11" class="node"><title>\\KMJ\\ToolkitBundle\\DataFixtures\\ORM\\StateFixtures</title>
<polygon fill="none" stroke="black" points="716.73,-1121 615.102,-1121 615.102,-1085 716.73,-1085 716.73,-1121"/>
<text text-anchor="middle" x="665.916" y="-1099.7" font-family="Courier,monospace" font-size="11.00">StateFixtures</text>
</g>
<!-- \\KMJ\\ToolkitBundle\\DataFixtures\\ORM\\StateFixtures&#45;&gt;\\Doctrine\\Common\\DataFixtures\\AbstractFixture -->
<g id="edge13" class="edge"><title>\\KMJ\\ToolkitBundle\\DataFixtures\\ORM\\StateFixtures&#45;&gt;\\Doctrine\\Common\\DataFixtures\\AbstractFixture</title>
<path fill="none" stroke="black" d="M615.078,-1108.09C595.6,-1111.88 573.85,-1118.48 556.605,-1130 531.767,-1146.59 542.541,-1169.19 516.605,-1184 497.154,-1195.11 475.517,-1202.91 453.284,-1208.28"/>
<polygon fill="none" stroke="black" points="452.369,-1204.9 443.379,-1210.51 453.903,-1211.73 452.369,-1204.9"/>
</g>
<!-- \\KMJ\\ToolkitBundle\\DataFixtures\\ORM\\StateFixtures&#45;&gt;\\Doctrine\\Common\\DataFixtures\\OrderedFixtureInterface -->
<g id="edge14" class="edge"><title>\\KMJ\\ToolkitBundle\\DataFixtures\\ORM\\StateFixtures&#45;&gt;\\Doctrine\\Common\\DataFixtures\\OrderedFixtureInterface</title>
<path fill="none" stroke="black" stroke-dasharray="1,5" d="M614.955,-1113.07C586.265,-1118.6 549.507,-1125.29 516.605,-1130 483.523,-1134.74 447.936,-1139.01 414.094,-1142.67"/>
<polygon fill="none" stroke="black" points="413.698,-1139.19 404.127,-1143.74 414.444,-1146.15 413.698,-1139.19"/>
</g>
<!-- \\KMJ\\ToolkitBundle\\DataFixtures\\ORM\\StateFixtures&#45;&gt;\\Symfony\\Component\\DependencyInjection\\ContainerAwareInterface -->
<g id="edge15" class="edge"><title>\\KMJ\\ToolkitBundle\\DataFixtures\\ORM\\StateFixtures&#45;&gt;\\Symfony\\Component\\DependencyInjection\\ContainerAwareInterface</title>
<path fill="none" stroke="black" stroke-dasharray="1,5" d="M614.773,-1103C590.955,-1103 560.467,-1103 527.387,-1103"/>
<polygon fill="none" stroke="black" points="527.041,-1099.5 517.041,-1103 527.041,-1106.5 527.041,-1099.5"/>
</g>
<!-- \\KMJ\\ToolkitBundle\\DataFixtures\\ORM\\RolesFixtures -->
<g id="node12" class="node"><title>\\KMJ\\ToolkitBundle\\DataFixtures\\ORM\\RolesFixtures</title>
<polygon fill="none" stroke="black" points="716.73,-1229 615.102,-1229 615.102,-1193 716.73,-1193 716.73,-1229"/>
<text text-anchor="middle" x="665.916" y="-1207.7" font-family="Courier,monospace" font-size="11.00">RolesFixtures</text>
</g>
<!-- \\KMJ\\ToolkitBundle\\DataFixtures\\ORM\\RolesFixtures&#45;&gt;\\Doctrine\\Common\\DataFixtures\\AbstractFixture -->
<g id="edge18" class="edge"><title>\\KMJ\\ToolkitBundle\\DataFixtures\\ORM\\RolesFixtures&#45;&gt;\\Doctrine\\Common\\DataFixtures\\AbstractFixture</title>
<path fill="none" stroke="black" d="M614.773,-1211C573.899,-1211 513.386,-1211 453.828,-1211"/>
<polygon fill="none" stroke="black" points="453.505,-1207.5 443.505,-1211 453.505,-1214.5 453.505,-1207.5"/>
</g>
<!-- \\KMJ\\ToolkitBundle\\DataFixtures\\ORM\\RolesFixtures&#45;&gt;\\Doctrine\\Common\\DataFixtures\\OrderedFixtureInterface -->
<g id="edge19" class="edge"><title>\\KMJ\\ToolkitBundle\\DataFixtures\\ORM\\RolesFixtures&#45;&gt;\\Doctrine\\Common\\DataFixtures\\OrderedFixtureInterface</title>
<path fill="none" stroke="black" stroke-dasharray="1,5" d="M614.955,-1200.93C586.265,-1195.4 549.507,-1188.71 516.605,-1184 483.523,-1179.26 447.936,-1174.99 414.094,-1171.33"/>
<polygon fill="none" stroke="black" points="414.444,-1167.85 404.127,-1170.26 413.698,-1174.81 414.444,-1167.85"/>
</g>
<!-- \\KMJ\\ToolkitBundle\\DataFixtures\\Alice\\Processor\\UserProcessor -->
<g id="node13" class="node"><title>\\KMJ\\ToolkitBundle\\DataFixtures\\Alice\\Processor\\UserProcessor</title>
<polygon fill="none" stroke="black" points="716.73,-1015 615.102,-1015 615.102,-979 716.73,-979 716.73,-1015"/>
<text text-anchor="middle" x="665.916" y="-993.7" font-family="Courier,monospace" font-size="11.00">UserProcessor</text>
</g>
<!-- \\Nelmio\\Alice\\ProcessorInterface -->
<g id="node32" class="node"><title>\\Nelmio\\Alice\\ProcessorInterface</title>
<ellipse fill="none" stroke="black" cx="258.303" cy="-997" rx="128.908" ry="18"/>
<text text-anchor="middle" x="258.303" y="-992.8" font-family="Times,serif" font-size="14.00" fill="gray">\Nelmio\Alice\ProcessorInterface</text>
</g>
<!-- \\KMJ\\ToolkitBundle\\DataFixtures\\Alice\\Processor\\UserProcessor&#45;&gt;\\Nelmio\\Alice\\ProcessorInterface -->
<g id="edge20" class="edge"><title>\\KMJ\\ToolkitBundle\\DataFixtures\\Alice\\Processor\\UserProcessor&#45;&gt;\\Nelmio\\Alice\\ProcessorInterface</title>
<path fill="none" stroke="black" stroke-dasharray="1,5" d="M614.773,-997C560.815,-997 472.636,-997 397.605,-997"/>
<polygon fill="none" stroke="black" points="397.583,-993.5 387.582,-997 397.582,-1000.5 397.583,-993.5"/>
</g>
<!-- \\KMJ\\ToolkitBundle\\TwigExtension\\AssetUrlExtension -->
<g id="node14" class="node"><title>\\KMJ\\ToolkitBundle\\TwigExtension\\AssetUrlExtension</title>
<polygon fill="none" stroke="black" points="730.135,-334 601.698,-334 601.698,-298 730.135,-298 730.135,-334"/>
<text text-anchor="middle" x="665.916" y="-312.7" font-family="Courier,monospace" font-size="11.00">AssetUrlExtension</text>
</g>
<!-- \\Twig_Extension -->
<g id="node27" class="node"><title>\\Twig_Extension</title>
<ellipse fill="none" stroke="black" cx="258.303" cy="-316" rx="70.3096" ry="18"/>
<text text-anchor="middle" x="258.303" y="-311.8" font-family="Times,serif" font-size="14.00" fill="gray">\Twig_Extension</text>
</g>
<!-- \\KMJ\\ToolkitBundle\\TwigExtension\\AssetUrlExtension&#45;&gt;\\Twig_Extension -->
<g id="edge8" class="edge"><title>\\KMJ\\ToolkitBundle\\TwigExtension\\AssetUrlExtension&#45;&gt;\\Twig_Extension</title>
<path fill="none" stroke="black" d="M601.539,-316C530.745,-316 416.017,-316 339.147,-316"/>
<polygon fill="none" stroke="black" points="339.03,-312.5 329.03,-316 339.03,-319.5 339.03,-312.5"/>
</g>
<!-- \\KMJ\\ToolkitBundle\\Listener\\PasswordResetListener -->
<g id="node15" class="node"><title>\\KMJ\\ToolkitBundle\\Listener\\PasswordResetListener</title>
<polygon fill="none" stroke="black" points="743.039,-255 588.793,-255 588.793,-219 743.039,-219 743.039,-255"/>
<text text-anchor="middle" x="665.916" y="-233.7" font-family="Courier,monospace" font-size="11.00">PasswordResetListener</text>
</g>
<!-- \\Symfony\\Component\\EventDispatcher\\EventSubscriberInterface -->
<g id="node28" class="node"><title>\\Symfony\\Component\\EventDispatcher\\EventSubscriberInterface</title>
<ellipse fill="none" stroke="black" cx="258.303" cy="-237" rx="242.358" ry="18"/>
<text text-anchor="middle" x="258.303" y="-232.8" font-family="Times,serif" font-size="14.00" fill="gray">\Symfony\Component\EventDispatcher\EventSubscriberInterface</text>
</g>
<!-- \\KMJ\\ToolkitBundle\\Listener\\PasswordResetListener&#45;&gt;\\Symfony\\Component\\EventDispatcher\\EventSubscriberInterface -->
<g id="edge9" class="edge"><title>\\KMJ\\ToolkitBundle\\Listener\\PasswordResetListener&#45;&gt;\\Symfony\\Component\\EventDispatcher\\EventSubscriberInterface</title>
<path fill="none" stroke="black" stroke-dasharray="1,5" d="M588.623,-237C565.63,-237 539.024,-237 511.101,-237"/>
<polygon fill="none" stroke="black" points="510.758,-233.5 500.758,-237 510.758,-240.5 510.758,-233.5"/>
</g>
<!-- \\KMJ\\ToolkitBundle\\DependencyInjection\\KMJToolkitExtension -->
<g id="node16" class="node"><title>\\KMJ\\ToolkitBundle\\DependencyInjection\\KMJToolkitExtension</title>
<polygon fill="none" stroke="black" points="736.837,-176 594.995,-176 594.995,-140 736.837,-140 736.837,-176"/>
<text text-anchor="middle" x="665.916" y="-154.7" font-family="Courier,monospace" font-size="11.00">KMJToolkitExtension</text>
</g>
<!-- \\Symfony\\Component\\HttpKernel\\DependencyInjection\\Extension -->
<g id="node29" class="node"><title>\\Symfony\\Component\\HttpKernel\\DependencyInjection\\Extension</title>
<ellipse fill="none" stroke="black" cx="258.303" cy="-158" rx="246.736" ry="18"/>
<text text-anchor="middle" x="258.303" y="-153.8" font-family="Times,serif" font-size="14.00" fill="gray">\Symfony\Component\HttpKernel\DependencyInjection\Extension</text>
</g>
<!-- \\KMJ\\ToolkitBundle\\DependencyInjection\\KMJToolkitExtension&#45;&gt;\\Symfony\\Component\\HttpKernel\\DependencyInjection\\Extension -->
<g id="edge10" class="edge"><title>\\KMJ\\ToolkitBundle\\DependencyInjection\\KMJToolkitExtension&#45;&gt;\\Symfony\\Component\\HttpKernel\\DependencyInjection\\Extension</title>
<path fill="none" stroke="black" d="M595.189,-158C571.989,-158 544.63,-158 515.704,-158"/>
<polygon fill="none" stroke="black" points="515.411,-154.5 505.411,-158 515.411,-161.5 515.411,-154.5"/>
</g>
<!-- \\KMJ\\ToolkitBundle\\DependencyInjection\\Configuration -->
<g id="node17" class="node"><title>\\KMJ\\ToolkitBundle\\DependencyInjection\\Configuration</title>
<polygon fill="none" stroke="black" points="716.73,-122 615.102,-122 615.102,-86 716.73,-86 716.73,-122"/>
<text text-anchor="middle" x="665.916" y="-100.7" font-family="Courier,monospace" font-size="11.00">Configuration</text>
</g>
<!-- \\Symfony\\Component\\Config\\Definition\\ConfigurationInterface -->
<g id="node30" class="node"><title>\\Symfony\\Component\\Config\\Definition\\ConfigurationInterface</title>
<ellipse fill="none" stroke="black" cx="258.303" cy="-104" rx="236.665" ry="18"/>
<text text-anchor="middle" x="258.303" y="-99.8" font-family="Times,serif" font-size="14.00" fill="gray">\Symfony\Component\Config\Definition\ConfigurationInterface</text>
</g>
<!-- \\KMJ\\ToolkitBundle\\DependencyInjection\\Configuration&#45;&gt;\\Symfony\\Component\\Config\\Definition\\ConfigurationInterface -->
<g id="edge16" class="edge"><title>\\KMJ\\ToolkitBundle\\DependencyInjection\\Configuration&#45;&gt;\\Symfony\\Component\\Config\\Definition\\ConfigurationInterface</title>
<path fill="none" stroke="black" stroke-dasharray="1,5" d="M614.773,-104C585.732,-104 546.777,-104 505.294,-104"/>
<polygon fill="none" stroke="black" points="505.273,-100.5 495.273,-104 505.273,-107.5 505.273,-100.5"/>
</g>
<!-- \\KMJ\\ToolkitBundle\\Service\\ToolkitService -->
<g id="node18" class="node"><title>\\KMJ\\ToolkitBundle\\Service\\ToolkitService</title>
<polygon fill="none" stroke="black" points="720.332,-920 611.5,-920 611.5,-884 720.332,-884 720.332,-920"/>
<text text-anchor="middle" x="665.916" y="-898.7" font-family="Courier,monospace" font-size="11.00">ToolkitService</text>
</g>
<!-- \\KMJ\\ToolkitBundle\\KMJToolkitBundle -->
<g id="node19" class="node"><title>\\KMJ\\ToolkitBundle\\KMJToolkitBundle</title>
<polygon fill="none" stroke="black" points="726.534,-68 605.298,-68 605.298,-32 726.534,-32 726.534,-68"/>
<text text-anchor="middle" x="665.916" y="-46.7" font-family="Courier,monospace" font-size="11.00">KMJToolkitBundle</text>
</g>
<!-- \\Symfony\\Component\\HttpKernel\\Bundle\\Bundle -->
<g id="node20" class="node"><title>\\Symfony\\Component\\HttpKernel\\Bundle\\Bundle</title>
<ellipse fill="none" stroke="black" cx="258.303" cy="-50" rx="186.926" ry="18"/>
<text text-anchor="middle" x="258.303" y="-45.8" font-family="Times,serif" font-size="14.00" fill="gray">\Symfony\Component\HttpKernel\Bundle\Bundle</text>
</g>
<!-- \\KMJ\\ToolkitBundle\\KMJToolkitBundle&#45;&gt;\\Symfony\\Component\\HttpKernel\\Bundle\\Bundle -->
<g id="edge1" class="edge"><title>\\KMJ\\ToolkitBundle\\KMJToolkitBundle&#45;&gt;\\Symfony\\Component\\HttpKernel\\Bundle\\Bundle</title>
<path fill="none" stroke="black" d="M605.067,-50C565.131,-50 510.149,-50 455.775,-50"/>
<polygon fill="none" stroke="black" points="455.633,-46.5001 445.633,-50 455.633,-53.5001 455.633,-46.5001"/>
</g>
</g>
</svg>
